<svg id="Warstwa_1" data-name="Warstwa 1" xmlns="http://www.w3.org/2000/svg" viewBox="0 0 116.36 80"><path d="M46.77,79H1.89V29.54H3.14c2.86,0,6.44-5.79,9.6-10.91,3.84-6.22,7.47-12.09,11.72-12.09s7.8,5.88,11.6,12.1c3.12,5.11,6.65,10.9,9.46,10.9h1.25ZM4.39,76.5H44.27V31.87c-3.68-1-6.93-6.33-10.35-11.93C30.8,14.83,27.27,9,24.46,9S18,14.83,14.86,20C11.4,25.55,8.11,30.87,4.39,31.87Z"/><path d="M115.54,79H87.85V30.59H89.1c1.54,0,3.59-2.34,5.39-4.41,2.26-2.59,4.6-5.26,7.28-5.26s5,2.67,7.2,5.26c1.79,2.07,3.8,4.41,5.32,4.41h1.25ZM90.35,76.5H113V32.89c-2.15-.66-4.08-2.9-6-5.07s-3.8-4.4-5.31-4.4-3.59,2.34-5.4,4.4-3.85,4.42-6,5.08Z"/><path d="M90.35,79H44.27V20.83L67.31.17l23,20.66ZM46.77,76.5H87.85V21.94L67.31,3.53,46.77,21.94Z"/><path d="M21.67,66.35H11.51V37.8H21.67ZM14,63.85h5.16V40.3H14Z"/><path d="M37.16,66.35H27V37.8H37.16Zm-7.66-2.5h5.16V40.3H29.5Z"/><path d="M64.16,44H52.21V30.23H64.16Zm-9.45-2.5h6.95V32.73H54.71Z"/><path d="M82,44h-12V30.23H82Zm-9.45-2.5h7V32.73h-7Z"/><path d="M106.25,67.09H96V43.67a5.13,5.13,0,0,1,10.25,0Zm-7.75-2.5h5.25V43.67a2.63,2.63,0,0,0-5.25,0Z"/></svg>