<svg id="Warstwa_1" data-name="Warstwa 1" xmlns="http://www.w3.org/2000/svg" viewBox="0 0 116.36 80"><path d="M45.35,79.72C29.67,79.72.71,77.6.1,62c-.06-1.67,1-3.58,3.05-5.51,8.5-8,31.45-15.19,61.73-12.12a116.41,116.41,0,0,1,14,2.05l-.58,2.44a115.44,115.44,0,0,0-13.65-2c-34-3.43-53.94,6-59.76,11.46-1.45,1.36-2.3,2.71-2.26,3.59C3,72,20.23,77.74,48.69,77.19S102.4,69.9,102.4,65a2,2,0,0,0-.68-1.48C98.11,60,83.31,60.18,76.19,60.29c-1.22,0-2.31,0-3.19,0-6.41,0-7.26-2.36-7.33-3.38-.11-1.61,1.42-3,3.72-3.27,2.78-.37,9.75-1.69,12.35-3.18L83,52.66c-3.73,2.14-13.16,3.49-13.25,3.5-1,.14-1.52.55-1.57.68.1.13,1.21,1,4.84,1,.87,0,1.94,0,3.15,0,11.12-.17,23.3,0,27.32,3.93A4.45,4.45,0,0,1,104.9,65c0,8.77-33.21,14.26-56.16,14.71C47.7,79.71,46.56,79.72,45.35,79.72Z"/><path d="M88.68,24.91l.21.34.22-.37Zm27,25.26c-.75-.5-3.86-4.53-6.94-8.77,4.34.41,4.6-.17,4.9-.83a1.42,1.42,0,0,0-.44-1.68c-.65-.62-4.06-6-7.35-11.36a2.25,2.25,0,0,0,1.8-1.13,2,2,0,0,0-.65-2.34c-1-1.08-6.22-10.47-10.61-20.87L95.2.28l-1.15,2.9c-2,4.57-4.12,8.93-6,12.48-.36.69-.71,1.35-1,2a48.31,48.31,0,0,1-3.79,6.31,2,2,0,0,0-.65,2.31,2.48,2.48,0,0,0,2,1.24c-3.3,5.4-6.72,10.77-7.37,11.39a1.4,1.4,0,0,0-.44,1.69c.29.66.56,1.24,4.89.83l-1.28,1.75c-.48.66-1,1.29-1.41,1.9l-.94,1.23c-.65.84-1.24,1.59-1.74,2.2a12.39,12.39,0,0,1-1.54,1.67,1.31,1.31,0,0,0-.69,1.5c.12.44.2.75,1.11,1a26.71,26.71,0,0,0,4.81.26l2.63,0c2.1,0,4.74-.09,8-.19l1.29,0,1.21,0,2-.07h.09l2.09.08,2.5.08c4.56.15,7.83.22,10.19.22,6,0,6.07-.44,6.28-1.22A1.29,1.29,0,0,0,115.64,50.17ZM95.54,50h-.3l-3.34.08c-7.07.21-11.48.26-13.89.22,1.24-1.45,2.77-3.46,4.2-5.38l1.37-1.88c.7-1,1.32-1.84,1.8-2.52L87,38.21l-2.85.38c-1.3.18-2.78.33-3.92.4,2.25-3.24,6.19-9.72,7.6-12l1-1.7.22-.37-.43,0-2,.14a9.82,9.82,0,0,1-1.21,0c.7-1,1.73-2.79,2.88-4.87.34-.6.69-1.23,1-1.87,2.07-3.81,4.34-8.25,5.76-11.49a171.83,171.83,0,0,0,9.47,18.27c-.31,0-.62,0-.92,0l-2.5-.26,1.3,2.15c1.4,2.32,5.35,8.8,7.6,12-1.14-.07-2.62-.22-3.93-.4l-2.84-.38L105,40.55c1.68,2.37,5,7.06,7.37,9.78C108.64,50.39,101.13,50.22,95.54,50Z"/><path d="M95.24,50h0Z"/><polygon points="99.83 58.61 90.69 58.61 90.69 51.36 93.19 51.36 93.19 56.11 97.33 56.11 97.33 51.36 99.83 51.36 99.83 58.61"/><path d="M88.89,25.25l.22-.37-.43,0Zm-.81-9.59c-1.09-2.22-2.25-4.72-3.35-7.31l-.85-2.16L83,8.34C79.69,16,75.79,22.93,75,23.72a1.45,1.45,0,0,0-.48,1.72,1.82,1.82,0,0,0,1.49.91c-2.44,4-5,8-5.46,8.45a1,1,0,0,0-.32,1.25c.21.49.41.92,3.62.61a58.5,58.5,0,0,1-5.12,6.49,1,1,0,0,0-.51,1.11.72.72,0,0,0,.38.56,6.77,6.77,0,0,0,2.57.32h0c.41,0,.87,0,1.4,0,1.52,0,3.58,0,6.38-.11L81.5,45l.71,0,1.37-1.88-2.14,0-1,0c-4.64.13-7.6.16-9.27.13,1.72-2,4.22-5.49,5.46-7.25l1.23-1.73-2.11.28c-1,.13-2.06.25-2.9.3,1.66-2.4,4.58-7.21,5.63-8.93l.92-1.53-1.78.13a6.76,6.76,0,0,1-.9,0A126.21,126.21,0,0,0,83.87,11c.8,1.87,2,4.28,3.16,6.59.46.89.91,1.75,1.35,2.56.34-.6.69-1.23,1-1.87C89,17.5,88.54,16.6,88.08,15.66Z"/><path d="M84.13,43.05h-.22v0Z"/></svg>