<svg id="Warstwa_1" data-name="Warstwa 1" xmlns="http://www.w3.org/2000/svg" viewBox="0 0 116.36 80"><path d="M79.18,63.48a12.36,12.36,0,0,1-8.77-3.63L66.55,56a12.56,12.56,0,0,0-17.74,0l-3.35,3.36a12.42,12.42,0,0,1-17.55,0L24.55,56A12.56,12.56,0,0,0,6.81,56L4.69,53.87a15.55,15.55,0,0,1,22,0L30,57.23a9.42,9.42,0,0,0,13.3,0l3.36-3.36a15.56,15.56,0,0,1,22,0l3.86,3.86a9.43,9.43,0,0,0,13.3,0l3.86-3.86L91.81,56,88,59.85A12.38,12.38,0,0,1,79.18,63.48Z"/><path d="M112.91,59.35,109.55,56a12.56,12.56,0,0,0-17.74,0l-2.12-2.12a15.56,15.56,0,0,1,22,0L115,57.23Z"/><path d="M112.91,73.35,109.55,70a12.56,12.56,0,0,0-17.74,0l-2.12-2.12a15.56,15.56,0,0,1,22,0L115,71.23Z"/><path d="M79.18,77.48a12.36,12.36,0,0,1-8.77-3.63L66.55,70a12.56,12.56,0,0,0-17.74,0l-3.35,3.36a12.42,12.42,0,0,1-17.55,0L24.55,70A12.56,12.56,0,0,0,6.81,70L4.69,67.87a15.55,15.55,0,0,1,22,0L30,71.23a9.42,9.42,0,0,0,13.3,0l3.36-3.36a15.56,15.56,0,0,1,22,0l3.86,3.86a9.43,9.43,0,0,0,13.3,0l3.86-3.86L91.81,70,88,73.85A12.38,12.38,0,0,1,79.18,77.48Z"/><path d="M84.12,36.86a13.41,13.41,0,1,1,13.4-13.41A13.42,13.42,0,0,1,84.12,36.86Zm0-23.81a10.41,10.41,0,1,0,10.4,10.4A10.42,10.42,0,0,0,84.12,13.05Z"/><rect x="98.86" y="21.78" width="8.53" height="3"/><rect x="94.3" y="9.6" width="8.53" height="3" transform="translate(15.94 65.97) rotate(-40.01)"/><rect x="82.98" y="3.2" width="8.53" height="3" transform="translate(67.48 89.8) rotate(-80.01)"/><rect x="72.96" y="2.81" width="3" height="8.53" transform="translate(6.44 38.18) rotate(-30)"/><rect x="64.69" y="12.85" width="3" height="8.53" transform="translate(27.47 73.46) rotate(-70)"/><rect x="62.05" y="28.62" width="8.53" height="3" transform="translate(-6.3 24.5) rotate(-20)"/><rect x="70.5" y="38.51" width="8.53" height="3" transform="translate(2.73 84.75) rotate(-60)"/><rect x="86.09" y="37.88" width="3" height="8.53" transform="translate(-5.99 15.85) rotate(-10)"/><rect x="97.29" y="31.27" width="3" height="8.53" transform="translate(8.07 88.38) rotate(-50)"/></svg>